<?xml version="1.0" standalone="no"?>
<!DOCTYPE svg PUBLIC "-//W3C//DTD SVG 20010904//EN"
 "http://www.w3.org/TR/2001/REC-SVG-20010904/DTD/svg10.dtd">
<svg version="1.0" xmlns="http://www.w3.org/2000/svg"
 width="600.000000pt" height="600.000000pt" viewBox="0 0 600.000000 600.000000"
 preserveAspectRatio="xMidYMid meet">
<metadata>
Created by potrace 1.14, written by Peter Selinger 2001-2017
</metadata>
<g transform="translate(0.000000,600.000000) scale(0.100000,-0.100000)"
fill="#000000" stroke="none">
<path d="M2819 5596 c-2 -2 -35 -6 -74 -10 -132 -11 -192 -21 -345 -57 -124
-29 -333 -96 -387 -124 -15 -8 -32 -15 -36 -15 -15 0 -250 -120 -325 -167
-330 -203 -605 -468 -820 -788 -50 -75 -172 -287 -172 -299 0 -2 -18 -42 -40
-89 -92 -198 -175 -505 -206 -757 -16 -137 -11 -506 10 -645 16 -112 15 -106
40 -220 110 -507 416 -1026 807 -1366 34 -30 67 -58 73 -64 30 -27 141 -108
221 -161 257 -171 522 -286 830 -363 78 -19 93 -22 185 -36 25 -4 56 -9 70
-11 142 -26 562 -25 715 1 43 7 96 16 125 21 249 44 571 164 808 301 314 181
636 477 837 771 208 303 343 621 414 973 22 106 24 121 38 254 10 91 9 452 -1
530 -4 33 -9 72 -11 87 -29 241 -123 546 -243 785 -64 129 -85 167 -94 171 -5
2 -8 9 -8 14 0 15 -107 172 -193 283 -86 111 -313 338 -427 426 -215 167 -431
290 -680 387 -70 28 -223 77 -270 88 -11 2 -28 6 -37 9 -55 14 -216 44 -268
50 -33 4 -69 9 -80 12 -24 5 -451 14 -456 9z"/>
</g>
</svg>
